<svg width="96" height="96" viewBox="0 0 96 96" fill="none" xmlns="http://www.w3.org/2000/svg">
<path d="M29.2174 44.3077C23.6824 44.3077 18.3742 42.3626 14.4604 38.9004C10.5466 35.4382 8.34782 30.7425 8.34782 25.8462V11.0769C8.34782 10.0977 8.78757 9.15851 9.57033 8.46607C10.3531 7.77363 11.4147 7.38462 12.5217 7.38462H16.6956C17.8026 7.38462 18.8643 6.99561 19.647 6.30316C20.4298 5.61072 20.8696 4.67157 20.8696 3.69231C20.8696 2.71305 20.4298 1.77389 19.647 1.08145C18.8643 0.38901 17.8026 0 16.6956 0H12.5217C9.20076 0 6.01581 1.16703 3.66753 3.24436C1.31925 5.32168 0 8.13914 0 11.0769V25.8462C0.00536523 30.0175 1.15522 34.1253 3.35081 37.8169C5.54641 41.5085 8.72212 44.6735 12.6052 47.04C16.3397 49.9469 19.3679 53.4945 21.506 57.4677C23.644 61.4409 24.8475 65.7568 25.0435 70.1538C25.0435 77.0087 28.1217 83.5827 33.601 88.4298C39.0804 93.2769 46.5119 96 54.2608 96C62.0098 96 69.4413 93.2769 74.9206 88.4298C80.4 83.5827 83.4782 77.0087 83.4782 70.1538V65.9446C87.4128 65.0459 90.8418 62.9087 93.1225 59.9335C95.4031 56.9583 96.3789 53.3495 95.8669 49.7834C95.3549 46.2173 93.3902 42.9388 90.3411 40.5625C87.292 38.1862 83.3679 36.8751 79.3043 36.8751C75.2407 36.8751 71.3166 38.1862 68.2675 40.5625C65.2185 42.9388 63.2538 46.2173 62.7417 49.7834C62.2297 53.3495 63.2055 56.9583 65.4862 59.9335C67.7668 62.9087 71.1958 65.0459 75.1304 65.9446V70.1538C75.1304 75.0501 72.9316 79.7459 69.0178 83.2081C65.104 86.6703 59.7958 88.6154 54.2608 88.6154C48.7259 88.6154 43.4176 86.6703 39.5038 83.2081C35.59 79.7459 33.3913 75.0501 33.3913 70.1538C33.5978 65.7514 34.8143 61.4321 36.9669 57.4586C39.1195 53.485 42.1633 49.9403 45.913 47.04C49.7807 44.6652 52.9402 41.4967 55.1209 37.8056C57.3017 34.1145 58.4387 30.0109 58.4348 25.8462V11.0769C58.4348 8.13914 57.1155 5.32168 54.7672 3.24436C52.4189 1.16703 49.234 0 45.913 0H41.7391C40.6321 0 39.5705 0.38901 38.7877 1.08145C38.005 1.77389 37.5652 2.71305 37.5652 3.69231C37.5652 4.67157 38.005 5.61072 38.7877 6.30316C39.5705 6.99561 40.6321 7.38462 41.7391 7.38462H45.913C47.02 7.38462 48.0817 7.77363 48.8644 8.46607C49.6472 9.15851 50.0869 10.0977 50.0869 11.0769V25.8462C50.0869 28.2706 49.5471 30.6712 48.4983 32.9111C47.4495 35.1509 45.9123 37.1861 43.9744 38.9004C42.0365 40.6147 39.7358 41.9746 37.2038 42.9024C34.6718 43.8302 31.958 44.3077 29.2174 44.3077ZM79.3043 59.0769C77.0903 59.0769 74.967 58.2989 73.4015 56.914C71.836 55.5291 70.9565 53.6508 70.9565 51.6923C70.9565 49.7338 71.836 47.8555 73.4015 46.4706C74.967 45.0857 77.0903 44.3077 79.3043 44.3077C81.5183 44.3077 83.6416 45.0857 85.2071 46.4706C86.7726 47.8555 87.6521 49.7338 87.6521 51.6923C87.6521 53.6508 86.7726 55.5291 85.2071 56.914C83.6416 58.2989 81.5183 59.0769 79.3043 59.0769Z" fill="black" fill-opacity="0.6"/>
</svg>
