<svg width="20" height="19" viewBox="0 0 20 19" fill="none" xmlns="http://www.w3.org/2000/svg">
<path d="M2.22222 7.125L3.88889 1.78125H16.1111L17.7778 7.125M16.1111 13.0625C15.6691 13.0625 15.2452 12.8748 14.9326 12.5408C14.62 12.2067 14.4444 11.7537 14.4444 11.2812C14.4444 10.8088 14.62 10.3558 14.9326 10.0217C15.2452 9.68767 15.6691 9.5 16.1111 9.5C16.5531 9.5 16.9771 9.68767 17.2896 10.0217C17.6022 10.3558 17.7778 10.8088 17.7778 11.2812C17.7778 11.7537 17.6022 12.2067 17.2896 12.5408C16.9771 12.8748 16.5531 13.0625 16.1111 13.0625ZM3.88889 13.0625C3.44686 13.0625 3.02294 12.8748 2.71038 12.5408C2.39782 12.2067 2.22222 11.7537 2.22222 11.2812C2.22222 10.8088 2.39782 10.3558 2.71038 10.0217C3.02294 9.68767 3.44686 9.5 3.88889 9.5C4.33092 9.5 4.75484 9.68767 5.0674 10.0217C5.37996 10.3558 5.55556 10.8088 5.55556 11.2812C5.55556 11.7537 5.37996 12.2067 5.0674 12.5408C4.75484 12.8748 4.33092 13.0625 3.88889 13.0625ZM17.6889 1.1875C17.4667 0.49875 16.8444 0 16.1111 0H3.88889C3.15556 0 2.53333 0.49875 2.31111 1.1875L0 8.3125V17.8125C0 18.1274 0.117063 18.4295 0.325437 18.6522C0.533811 18.8749 0.816426 19 1.11111 19H2.22222C2.51691 19 2.79952 18.8749 3.0079 18.6522C3.21627 18.4295 3.33333 18.1274 3.33333 17.8125V16.625H16.6667V17.8125C16.6667 18.1274 16.7837 18.4295 16.9921 18.6522C17.2005 18.8749 17.4831 19 17.7778 19H18.8889C19.1836 19 19.4662 18.8749 19.6746 18.6522C19.8829 18.4295 20 18.1274 20 17.8125V8.3125L17.6889 1.1875Z" fill="#1B3858"/>
</svg>