<svg width="26" height="26" viewBox="0 0 26 26" fill="none" xmlns="http://www.w3.org/2000/svg">
<path d="M24.3587 10.0773C23.9212 9.62 23.4685 9.14875 23.2979 8.73438C23.14 8.35482 23.1307 7.72571 23.1214 7.11634C23.104 5.98348 23.0854 4.69973 22.1929 3.80714C21.3003 2.91455 20.0165 2.89598 18.8837 2.87857C18.2743 2.86929 17.6452 2.86 17.2656 2.70214C16.8524 2.53152 16.38 2.07884 15.9227 1.64125C15.1218 0.871696 14.2118 0 13 0C11.7882 0 10.8794 0.871696 10.0773 1.64125C9.62 2.07884 9.14875 2.53152 8.73438 2.70214C8.35714 2.86 7.72571 2.86929 7.11634 2.87857C5.98348 2.89598 4.69973 2.91455 3.80714 3.80714C2.91455 4.69973 2.90179 5.98348 2.87857 7.11634C2.86929 7.72571 2.86 8.35482 2.70214 8.73438C2.53152 9.14759 2.07884 9.62 1.64125 10.0773C0.871696 10.8794 0 11.7882 0 13C0 14.2118 0.871696 15.1206 1.64125 15.9227C2.07884 16.38 2.53152 16.8512 2.70214 17.2656C2.86 17.6452 2.86929 18.2743 2.87857 18.8837C2.89598 20.0165 2.91455 21.3003 3.80714 22.1929C4.69973 23.0854 5.98348 23.104 7.11634 23.1214C7.72571 23.1307 8.35482 23.14 8.73438 23.2979C9.14759 23.4685 9.62 23.9212 10.0773 24.3587C10.8782 25.1283 11.7882 26 13 26C14.2118 26 15.1206 25.1283 15.9227 24.3587C16.38 23.9212 16.8512 23.4685 17.2656 23.2979C17.6452 23.14 18.2743 23.1307 18.8837 23.1214C20.0165 23.104 21.3003 23.0854 22.1929 22.1929C23.0854 21.3003 23.104 20.0165 23.1214 18.8837C23.1307 18.2743 23.14 17.6452 23.2979 17.2656C23.4685 16.8524 23.9212 16.38 24.3587 15.9227C25.1283 15.1206 26 14.2118 26 13C26 11.7882 25.1283 10.8794 24.3587 10.0773ZM23.0181 14.6378C22.4621 15.2181 21.8864 15.8182 21.5812 16.5553C21.2887 17.2633 21.2759 18.0723 21.2643 18.8558C21.2527 19.6683 21.2399 20.5191 20.8789 20.8789C20.5179 21.2388 19.6729 21.2527 18.8558 21.2643C18.0723 21.2759 17.2633 21.2887 16.5553 21.5812C15.8182 21.8864 15.2181 22.4621 14.6378 23.0181C14.0574 23.5741 13.4643 24.1429 13 24.1429C12.5357 24.1429 11.9379 23.5718 11.3622 23.0181C10.7865 22.4645 10.1818 21.8864 9.44473 21.5812C8.7367 21.2887 7.92768 21.2759 7.1442 21.2643C6.3317 21.2527 5.48089 21.2399 5.12107 20.8789C4.76125 20.5179 4.74732 19.6729 4.73571 18.8558C4.72411 18.0723 4.71134 17.2633 4.41884 16.5553C4.11357 15.8182 3.53786 15.2181 2.98187 14.6378C2.42589 14.0574 1.85714 13.4643 1.85714 13C1.85714 12.5357 2.42821 11.9391 2.98187 11.3622C3.53554 10.7854 4.11357 10.1818 4.41884 9.44473C4.71134 8.7367 4.72411 7.92768 4.73571 7.1442C4.74732 6.3317 4.76009 5.48089 5.12107 5.12107C5.48205 4.76125 6.32705 4.74732 7.1442 4.73571C7.92768 4.72411 8.7367 4.71134 9.44473 4.41884C10.1818 4.11357 10.7819 3.53786 11.3622 2.98187C11.9426 2.42589 12.5357 1.85714 13 1.85714C13.4643 1.85714 14.0621 2.42821 14.6378 2.98187C15.2135 3.53554 15.8182 4.11357 16.5553 4.41884C17.2633 4.71134 18.0723 4.72411 18.8558 4.73571C19.6683 4.74732 20.5191 4.76009 20.8789 5.12107C21.2388 5.48205 21.2527 6.32705 21.2643 7.1442C21.2759 7.92768 21.2887 8.7367 21.5812 9.44473C21.8864 10.1818 22.4621 10.7819 23.0181 11.3622C23.5741 11.9426 24.1429 12.5357 24.1429 13C24.1429 13.4643 23.5718 14.0609 23.0181 14.6378ZM12.0714 9.28571C12.0714 8.73475 11.908 8.19616 11.602 7.73805C11.2959 7.27995 10.8608 6.92289 10.3518 6.71205C9.84274 6.50121 9.28262 6.44604 8.74225 6.55353C8.20187 6.66101 7.70551 6.92633 7.31592 7.31592C6.92633 7.70551 6.66101 8.20187 6.55353 8.74225C6.44604 9.28262 6.50121 9.84274 6.71205 10.3518C6.92289 10.8608 7.27995 11.2959 7.73805 11.602C8.19616 11.908 8.73475 12.0714 9.28571 12.0714C10.0245 12.0714 10.7331 11.7779 11.2555 11.2555C11.7779 10.7331 12.0714 10.0245 12.0714 9.28571ZM8.35714 9.28571C8.35714 9.10206 8.4116 8.92253 8.51364 8.76983C8.61567 8.61712 8.76069 8.49811 8.93036 8.42783C9.10004 8.35754 9.28674 8.33916 9.46687 8.37498C9.64699 8.41081 9.81245 8.49925 9.94231 8.62912C10.0722 8.75898 10.1606 8.92443 10.1964 9.10456C10.2323 9.28468 10.2139 9.47139 10.1436 9.64106C10.0733 9.81074 9.9543 9.95576 9.8016 10.0578C9.6489 10.1598 9.46937 10.2143 9.28571 10.2143C9.03944 10.2143 8.80326 10.1165 8.62912 9.94231C8.45497 9.76817 8.35714 9.53199 8.35714 9.28571ZM16.7143 13.9286C16.1633 13.9286 15.6247 14.0919 15.1666 14.398C14.7085 14.7041 14.3515 15.1392 14.1406 15.6482C13.9298 16.1573 13.8746 16.7174 13.9821 17.2578C14.0896 17.7981 14.3549 18.2945 14.7445 18.6841C15.1341 19.0737 15.6304 19.339 16.1708 19.4465C16.7112 19.554 17.2713 19.4988 17.7803 19.288C18.2894 19.0771 18.7244 18.7201 19.0305 18.2619C19.3366 17.8038 19.5 17.2652 19.5 16.7143C19.5 15.9755 19.2065 15.2669 18.6841 14.7445C18.1617 14.2221 17.4531 13.9286 16.7143 13.9286ZM16.7143 17.6429C16.5306 17.6429 16.3511 17.5884 16.1984 17.4864C16.0457 17.3843 15.9267 17.2393 15.8564 17.0696C15.7861 16.9 15.7677 16.7133 15.8036 16.5331C15.8394 16.353 15.9278 16.1875 16.0577 16.0577C16.1875 15.9278 16.353 15.8394 16.5331 15.8036C16.7133 15.7677 16.9 15.7861 17.0696 15.8564C17.2393 15.9267 17.3843 16.0457 17.4864 16.1984C17.5884 16.3511 17.6429 16.5306 17.6429 16.7143C17.6429 16.9606 17.545 17.1967 17.3709 17.3709C17.1967 17.545 16.9606 17.6429 16.7143 17.6429ZM18.2998 9.01411L9.01411 18.2998C8.92783 18.3861 8.82541 18.4545 8.71269 18.5012C8.59997 18.5479 8.47915 18.5719 8.35714 18.5719C8.23513 18.5719 8.11432 18.5479 8.0016 18.5012C7.88887 18.4545 7.78645 18.3861 7.70018 18.2998C7.6139 18.2135 7.54547 18.1111 7.49878 17.9984C7.45209 17.8857 7.42805 17.7649 7.42805 17.6429C7.42805 17.5208 7.45209 17.4 7.49878 17.2873C7.54547 17.1746 7.6139 17.0722 7.70018 16.9859L16.9859 7.70018C17.0722 7.6139 17.1746 7.54547 17.2873 7.49878C17.4 7.45209 17.5208 7.42805 17.6429 7.42805C17.7649 7.42805 17.8857 7.45209 17.9984 7.49878C18.1111 7.54547 18.2135 7.6139 18.2998 7.70018C18.3861 7.78645 18.4545 7.88887 18.5012 8.0016C18.5479 8.11432 18.5719 8.23513 18.5719 8.35714C18.5719 8.47915 18.5479 8.59997 18.5012 8.71269C18.4545 8.82541 18.3861 8.92783 18.2998 9.01411Z" fill="#000326"/>
</svg>
