<svg width="26" height="26" viewBox="0 0 26 26" fill="none" xmlns="http://www.w3.org/2000/svg">
<path d="M13 0C20.1799 0 26 5.8201 26 13C26 20.1799 20.1799 26 13 26C5.8201 26 0 20.1799 0 13C0 5.8201 5.8201 0 13 0ZM13 2.6C10.2417 2.6 7.59647 3.69571 5.64609 5.64609C3.69571 7.59647 2.6 10.2417 2.6 13C2.6 15.7583 3.69571 18.4035 5.64609 20.3539C7.59647 22.3043 10.2417 23.4 13 23.4C15.7583 23.4 18.4035 22.3043 20.3539 20.3539C22.3043 18.4035 23.4 15.7583 23.4 13C23.4 10.2417 22.3043 7.59647 20.3539 5.64609C18.4035 3.69571 15.7583 2.6 13 2.6ZM13 5.2C13.3184 5.20004 13.6257 5.31694 13.8637 5.52853C14.1016 5.74012 14.2536 6.03167 14.2909 6.3479L14.3 6.5V12.4618L17.8191 15.9809C18.0523 16.2148 18.1876 16.5288 18.1977 16.8589C18.2078 17.189 18.0918 17.5106 17.8734 17.7584C17.6549 18.0061 17.3504 18.1614 17.0216 18.1927C16.6928 18.224 16.3644 18.129 16.1031 17.927L15.9809 17.8191L12.0809 13.9191C11.8789 13.7169 11.7491 13.4537 11.7117 13.1703L11.7 13V6.5C11.7 6.15522 11.837 5.82456 12.0808 5.58076C12.3246 5.33696 12.6552 5.2 13 5.2Z" fill="#000326"/>
</svg>