<svg width="29" height="48" viewBox="0 0 29 48" fill="none" xmlns="http://www.w3.org/2000/svg">
<path d="M0.977291 5.23527C-0.326118 4.04041 -0.325636 1.98536 0.978334 0.791107C2.13056 -0.264168 3.89819 -0.263905 5.0501 0.791714L27.3166 21.1969C27.7083 21.5537 28.0192 21.9781 28.2314 22.4455C28.4435 22.9129 28.5527 23.4142 28.5527 23.9205C28.5527 24.4268 28.4435 24.928 28.2314 25.3955C28.0192 25.8629 27.7083 26.2872 27.3166 26.6441L5.05001 47.0599C3.89837 48.1159 2.13055 48.1159 0.978821 47.0601C-0.323389 45.8663 -0.323483 43.8134 0.978617 42.6195L21.3662 23.9263L0.977291 5.23527Z" fill="#000326"/>
</svg>
