<svg width="29" height="48" viewBox="0 0 29 48" fill="none" xmlns="http://www.w3.org/2000/svg">
<path d="M27.5754 42.6168C28.8789 43.8116 28.8784 45.8667 27.5744 47.0609C26.4222 48.1162 24.6545 48.116 23.5026 47.0603L1.23613 26.6552C0.844395 26.2983 0.533508 25.874 0.321362 25.4065C0.109216 24.9391 0 24.4378 0 23.9316C0 23.4253 0.109216 22.924 0.321362 22.4566C0.533508 21.9892 0.844395 21.5648 1.23613 21.208L23.5027 0.792112C24.6544 -0.263806 26.4222 -0.263883 27.5739 0.791935C28.8761 1.9857 28.8762 4.03867 27.5741 5.23256L7.18655 23.9258L27.5754 42.6168Z" fill="#000326"/>
</svg>