<svg width="177" height="48" viewBox="0 0 177 48" fill="none" xmlns="http://www.w3.org/2000/svg">
<path d="M6.35467 24.1984C23.6338 31.3813 34.9866 23.5454 40.5559 19.3476C40.9129 19.0677 41.2699 18.7879 41.6983 18.508C43.412 17.1087 45.8396 14.9632 46.1252 14.59C45.197 14.8699 43.1264 15.896 40.6987 17.0154C41.4127 5.35486 38.4853 -7.42514 21.0633 5.26158C23.5624 8.1534 24.919 9.45939 29.2745 12.4445C29.2745 12.4445 25.7758 12.8176 18.2073 4.88844C10.496 -3.13404 2.64181 3.3026 5.21225 18.3214C5.42646 19.5341 6.06907 22.7991 6.35467 24.1984Z" fill="#FF5B5B"/>
<path d="M0 23.079C1.92784 25.3178 5.06949 28.676 7.85414 30.5417C11.8526 44.1613 17.9931 56.6614 20.2066 40.0568C20.9206 33.9933 25.9187 34.2731 27.9179 45.0941C29.7029 54.5159 37.5571 36.1388 39.9133 24.3849C40.0561 23.7319 40.4845 21.5864 40.5559 20.8401C23.3482 36.3254 0 23.079 0 23.079Z" fill="#78C841"/>
<path d="M38.6281 21.9595L46.1967 15.9893C46.1967 15.9893 41.8412 22.7991 36.9859 25.8775C36.0577 25.0379 38.6281 21.9595 38.6281 21.9595Z" fill="#000326"/>
<path d="M1.85645 22.1461C1.85645 22.1461 4.7839 24.5715 8.35396 25.8775C8.63957 24.4782 7.92556 23.2655 7.92556 23.2655C7.92556 23.2655 4.06989 23.079 1.85645 22.1461Z" fill="#FF5B5B"/>
<path d="M44.2688 11.1385C44.2688 11.1385 50.0523 12.1646 46.7678 19.7207C49.0527 18.3214 51.2661 10.299 44.2688 11.1385Z" fill="#FF5B5B"/>
<path d="M57.6986 20.5413V11.814H61.3378C61.9912 11.814 62.5381 11.9063 62.9784 12.091C63.4216 12.2756 63.754 12.5342 63.9756 12.8665C64.2 13.1989 64.3122 13.5839 64.3122 14.0214C64.3122 14.3538 64.2426 14.6506 64.1034 14.912C63.9642 15.1705 63.7725 15.385 63.5281 15.5555C63.2838 15.7259 63.0012 15.8452 62.6801 15.9134V15.9986C63.0324 16.0157 63.3577 16.1109 63.656 16.2842C63.9571 16.4575 64.1986 16.6989 64.3804 17.0086C64.5622 17.3154 64.6531 17.679 64.6531 18.0995C64.6531 18.5682 64.5338 18.9873 64.2952 19.3566C64.0566 19.7231 63.7114 20.0129 63.2597 20.2259C62.808 20.4361 62.2597 20.5413 61.6148 20.5413H57.6986ZM59.808 18.841H61.1119C61.5693 18.841 61.906 18.7543 62.1219 18.581C62.3406 18.4077 62.45 18.1663 62.45 17.8566C62.45 17.6322 62.3975 17.439 62.2923 17.2771C62.1872 17.1123 62.0381 16.9859 61.8449 16.8978C61.6517 16.8069 61.4202 16.7614 61.1503 16.7614H59.808V18.841ZM59.808 15.4021H60.9756C61.2057 15.4021 61.4102 15.3637 61.5892 15.287C61.7682 15.2103 61.9074 15.0995 62.0068 14.9546C62.1091 14.8097 62.1602 14.635 62.1602 14.4305C62.1602 14.1379 62.0566 13.9077 61.8492 13.7401C61.6418 13.5725 61.3619 13.4887 61.0097 13.4887H59.808V15.4021ZM65.6673 20.5413V11.814H69.2725C69.9259 11.814 70.4898 11.9319 70.9642 12.1677C71.4415 12.4006 71.8094 12.7359 72.0679 13.1734C72.3264 13.608 72.4557 14.1236 72.4557 14.7202C72.4557 15.3254 72.3236 15.8396 72.0594 16.2629C71.7952 16.6833 71.4202 17.0043 70.9344 17.2259C70.4486 17.4447 69.8733 17.554 69.2085 17.554H66.9287V15.8921H68.8165C69.1347 15.8921 69.4003 15.8509 69.6134 15.7685C69.8293 15.6833 69.9926 15.5555 70.1034 15.385C70.2142 15.2117 70.2696 14.9901 70.2696 14.7202C70.2696 14.4504 70.2142 14.2273 70.1034 14.0512C69.9926 13.8722 69.8293 13.7387 69.6134 13.6506C69.3975 13.5597 69.1318 13.5143 68.8165 13.5143H67.7767V20.5413H65.6673ZM70.5807 16.5526L72.754 20.5413H70.4529L68.3222 16.5526H70.5807ZM75.722 11.814V20.5413H73.6127V11.814H75.722ZM82.7735 14.6648C82.7252 14.4859 82.6542 14.3282 82.5605 14.1918C82.4667 14.0526 82.3517 13.9347 82.2153 13.8381C82.0789 13.7415 81.9227 13.6691 81.7465 13.6208C81.5704 13.5697 81.3772 13.5441 81.167 13.5441C80.7437 13.5441 80.3772 13.6464 80.0676 13.8509C79.7607 14.0555 79.5235 14.3538 79.3559 14.7458C79.1883 15.135 79.1045 15.608 79.1045 16.1648C79.1045 16.7245 79.1855 17.2018 79.3474 17.5967C79.5093 17.9915 79.7437 18.2927 80.0505 18.5001C80.3573 18.7075 80.7295 18.8111 81.167 18.8111C81.5534 18.8111 81.8801 18.7486 82.1471 18.6236C82.417 18.4958 82.6215 18.3154 82.7607 18.0825C82.8999 17.8495 82.9695 17.5754 82.9695 17.26L83.3616 17.3069H81.2394V15.7685H85.0022V16.9234C85.0022 17.7046 84.836 18.3736 84.5036 18.9305C84.1741 19.4873 83.7195 19.9148 83.14 20.2131C82.5633 20.5114 81.8999 20.6606 81.1499 20.6606C80.3176 20.6606 79.586 20.4802 78.9553 20.1194C78.3247 19.7586 77.8332 19.2444 77.4809 18.5768C77.1286 17.9063 76.9525 17.1109 76.9525 16.1904C76.9525 15.4745 77.059 14.8396 77.2721 14.2856C77.4852 13.7288 77.782 13.2572 78.1627 12.8708C78.5463 12.4844 78.9894 12.1918 79.4923 11.993C79.998 11.7941 80.542 11.6947 81.1244 11.6947C81.6301 11.6947 82.1002 11.7671 82.5349 11.912C82.9724 12.0569 83.3588 12.2614 83.694 12.5256C84.032 12.7898 84.3062 13.1038 84.5164 13.4674C84.7267 13.831 84.8573 14.2302 84.9085 14.6648H82.7735ZM86.2455 20.5413V11.814H88.3548V15.3168H91.7938V11.814H93.8989V20.5413H91.7938V17.0342H88.3548V20.5413H86.2455ZM94.9365 13.5271V11.814H102.313V13.5271H99.6666V20.5413H97.5871V13.5271H94.9365ZM110.639 14.4305C110.61 14.118 110.484 13.8751 110.259 13.7018C110.038 13.5256 109.721 13.4376 109.309 13.4376C109.036 13.4376 108.809 13.4731 108.627 13.5441C108.445 13.6151 108.309 13.7131 108.218 13.8381C108.127 13.9603 108.08 14.1009 108.078 14.26C108.072 14.3907 108.097 14.5057 108.154 14.6052C108.214 14.7046 108.299 14.7927 108.41 14.8694C108.524 14.9432 108.66 15.0086 108.819 15.0654C108.978 15.1222 109.157 15.1719 109.356 15.2146L110.106 15.385C110.538 15.4788 110.918 15.6038 111.248 15.76C111.58 15.9163 111.859 16.1023 112.083 16.3182C112.31 16.5342 112.482 16.7827 112.599 17.064C112.715 17.3452 112.775 17.6606 112.778 18.01C112.775 18.5611 112.636 19.0342 112.36 19.429C112.085 19.8239 111.688 20.1265 111.171 20.3367C110.657 20.5469 110.036 20.6521 109.309 20.6521C108.579 20.6521 107.943 20.5427 107.4 20.3239C106.857 20.1052 106.435 19.7728 106.134 19.3268C105.833 18.8807 105.678 18.3168 105.67 17.635H107.69C107.707 17.9163 107.782 18.1506 107.916 18.3381C108.049 18.5256 108.232 18.6677 108.465 18.7643C108.701 18.8609 108.974 18.9092 109.283 18.9092C109.568 18.9092 109.809 18.8708 110.008 18.7941C110.21 18.7174 110.364 18.6109 110.472 18.4745C110.58 18.3381 110.636 18.1819 110.639 18.0057C110.636 17.841 110.585 17.7004 110.485 17.5839C110.386 17.4646 110.232 17.3623 110.025 17.2771C109.82 17.189 109.559 17.108 109.241 17.0342L108.329 16.8211C107.573 16.6478 106.978 16.368 106.543 15.9816C106.109 15.5924 105.893 15.0668 105.896 14.4049C105.893 13.8651 106.038 13.3921 106.33 12.9859C106.623 12.5796 107.028 12.2629 107.545 12.0356C108.062 11.8083 108.651 11.6947 109.313 11.6947C109.989 11.6947 110.576 11.8097 111.073 12.0398C111.573 12.2671 111.961 12.5867 112.237 12.9986C112.512 13.4106 112.653 13.8879 112.658 14.4305H110.639ZM113.843 11.814H116.455L118.671 17.2174H118.774L120.989 11.814H123.602V20.5413H121.548V15.1805H121.475L119.379 20.4859H118.066L115.97 15.1506H115.897V20.5413H113.843V11.814ZM127.027 11.814V20.5413H124.917V11.814H127.027ZM128.351 20.5413V11.814H130.46V18.8282H134.091V20.5413H128.351ZM135.183 20.5413V11.814H141.268V13.5271H137.292V15.3168H140.957V17.0342H137.292V18.8282H141.268V20.5413H135.183Z" fill="#78C841"/>
<path d="M61.2483 38.5413H57.7536V29.0867H61.2437C62.207 29.0867 63.0364 29.276 63.732 29.6545C64.4306 30.03 64.9692 30.5717 65.3477 31.2795C65.7263 31.9843 65.9156 32.8276 65.9156 33.8094C65.9156 34.7942 65.7263 35.6406 65.3477 36.3484C64.9723 37.0563 64.4352 37.5995 63.7366 37.978C63.038 38.3535 62.2085 38.5413 61.2483 38.5413ZM60.0388 36.5931H61.1606C61.69 36.5931 62.1378 36.5039 62.504 36.3254C62.8733 36.1438 63.1518 35.8499 63.3396 35.4436C63.5304 35.0343 63.6258 34.4895 63.6258 33.8094C63.6258 33.1292 63.5304 32.5875 63.3396 32.1844C63.1488 31.7781 62.8672 31.4857 62.4948 31.3072C62.1254 31.1257 61.67 31.0349 61.1283 31.0349H60.0388V36.5931ZM67.2497 38.5413V29.0867H73.8421V30.9425H69.5349V32.8815H73.5051V34.7419H69.5349V36.6854H73.8421V38.5413H67.2497ZM83.3197 29.0867V38.5413H81.3808L77.6183 33.0846H77.5583V38.5413H75.2732V29.0867H77.2398L80.9607 34.5342H81.0392V29.0867H83.3197ZM84.4473 30.9425V29.0867H92.4384V30.9425H89.5716V38.5413H87.3187V30.9425H84.4473ZM94.4189 38.5413H91.9629L95.1529 29.0867H98.1951L101.385 38.5413H98.9292L96.7086 31.4688H96.6348L94.4189 38.5413ZM94.0911 34.8204H99.2246V36.5562H94.0911V34.8204ZM102.403 38.5413V29.0867H104.688V36.6854H108.621V38.5413H102.403ZM121.179 32.5121H118.871C118.84 32.2752 118.777 32.0613 118.682 31.8704C118.586 31.6796 118.46 31.5165 118.303 31.3811C118.146 31.2457 117.96 31.1426 117.745 31.0718C117.532 30.9979 117.297 30.961 117.038 30.961C116.58 30.961 116.184 31.0733 115.852 31.298C115.523 31.5227 115.269 31.8474 115.09 32.2721C114.915 32.6968 114.827 33.2108 114.827 33.814C114.827 34.4418 114.916 34.9681 115.095 35.3928C115.276 35.8145 115.53 36.133 115.857 36.3484C116.186 36.5608 116.575 36.667 117.025 36.667C117.277 36.667 117.506 36.6347 117.712 36.57C117.922 36.5054 118.105 36.4115 118.262 36.2884C118.422 36.1622 118.553 36.0099 118.654 35.8314C118.759 35.6498 118.831 35.4451 118.871 35.2174L121.179 35.2312C121.139 35.6498 121.018 36.0622 120.815 36.4685C120.615 36.8747 120.339 37.2456 119.988 37.581C119.638 37.9134 119.21 38.1781 118.705 38.3751C118.203 38.572 117.628 38.6705 116.978 38.6705C116.123 38.6705 115.357 38.4828 114.679 38.1073C114.005 37.7288 113.473 37.1779 113.082 36.4546C112.691 35.7314 112.496 34.8512 112.496 33.814C112.496 32.7737 112.694 31.892 113.091 31.1687C113.488 30.4455 114.025 29.8961 114.703 29.5207C115.38 29.1452 116.138 28.9575 116.978 28.9575C117.551 28.9575 118.08 29.0375 118.566 29.1975C119.053 29.3545 119.481 29.5853 119.85 29.89C120.219 30.1916 120.519 30.5624 120.75 31.0026C120.981 31.4427 121.124 31.9459 121.179 32.5121ZM122.487 38.5413V29.0867H124.772V36.6854H128.705V38.5413H122.487ZM132.174 29.0867V38.5413H129.888V29.0867H132.174ZM141.655 29.0867V38.5413H139.716L135.953 33.0846H135.893V38.5413H133.608V29.0867H135.575L139.296 34.5342H139.374V29.0867H141.655ZM145.377 29.0867V38.5413H143.092V29.0867H145.377ZM155.393 32.5121H153.085C153.054 32.2752 152.991 32.0613 152.896 31.8704C152.8 31.6796 152.674 31.5165 152.517 31.3811C152.36 31.2457 152.174 31.1426 151.959 31.0718C151.746 30.9979 151.511 30.961 151.252 30.961C150.794 30.961 150.398 31.0733 150.066 31.298C149.737 31.5227 149.483 31.8474 149.304 32.2721C149.129 32.6968 149.041 33.2108 149.041 33.814C149.041 34.4418 149.13 34.9681 149.309 35.3928C149.49 35.8145 149.744 36.133 150.07 36.3484C150.4 36.5608 150.789 36.667 151.238 36.667C151.491 36.667 151.72 36.6347 151.926 36.57C152.136 36.5054 152.319 36.4115 152.476 36.2884C152.636 36.1622 152.767 36.0099 152.868 35.8314C152.973 35.6498 153.045 35.4451 153.085 35.2174L155.393 35.2312C155.353 35.6498 155.232 36.0622 155.029 36.4685C154.829 36.8747 154.553 37.2456 154.202 37.581C153.851 37.9134 153.424 38.1781 152.919 38.3751C152.417 38.572 151.842 38.6705 151.192 38.6705C150.337 38.6705 149.57 38.4828 148.893 38.1073C148.219 37.7288 147.687 37.1779 147.296 36.4546C146.905 35.7314 146.71 34.8512 146.71 33.814C146.71 32.7737 146.908 31.892 147.305 31.1687C147.702 30.4455 148.239 29.8961 148.916 29.5207C149.593 29.1452 150.352 28.9575 151.192 28.9575C151.765 28.9575 152.294 29.0375 152.78 29.1975C153.267 29.3545 153.694 29.5853 154.064 29.89C154.433 30.1916 154.733 30.5624 154.964 31.0026C155.195 31.4427 155.338 31.9459 155.393 32.5121Z" fill="#FF5B5B"/>
</svg>