<svg width="49" height="48" viewBox="0 0 49 48" fill="none" xmlns="http://www.w3.org/2000/svg">
<path d="M6.35467 24.1984C23.6338 31.3813 34.9866 23.5454 40.5559 19.3476C40.9129 19.0677 41.2699 18.7879 41.6983 18.508C43.412 17.1087 45.8396 14.9632 46.1252 14.59C45.197 14.8699 43.1264 15.896 40.6987 17.0154C41.4127 5.35486 38.4853 -7.42514 21.0633 5.26158C23.5624 8.1534 24.919 9.45939 29.2745 12.4445C29.2745 12.4445 25.7758 12.8176 18.2073 4.88844C10.496 -3.13404 2.64181 3.3026 5.21225 18.3214C5.42646 19.5341 6.06907 22.7991 6.35467 24.1984Z" fill="#FF5B5B"/>
<path d="M0 23.079C1.92784 25.3178 5.06949 28.676 7.85414 30.5417C11.8526 44.1613 17.9931 56.6614 20.2066 40.0568C20.9206 33.9933 25.9187 34.2731 27.9179 45.0941C29.7029 54.5159 37.5571 36.1388 39.9133 24.3849C40.0561 23.7319 40.4845 21.5864 40.5559 20.8401C23.3482 36.3254 0 23.079 0 23.079Z" fill="#78C841"/>
<path d="M38.6281 21.9595L46.1967 15.9893C46.1967 15.9893 41.8412 22.7991 36.9859 25.8775C36.0577 25.0379 38.6281 21.9595 38.6281 21.9595Z" fill="#000326"/>
<path d="M1.85645 22.1461C1.85645 22.1461 4.7839 24.5715 8.35396 25.8775C8.63957 24.4782 7.92556 23.2655 7.92556 23.2655C7.92556 23.2655 4.06989 23.079 1.85645 22.1461Z" fill="#FF5B5B"/>
<path d="M44.2688 11.1385C44.2688 11.1385 50.0523 12.1646 46.7678 19.7207C49.0527 18.3214 51.2661 10.299 44.2688 11.1385Z" fill="#FF5B5B"/>
</svg>
