<svg width="22" height="19" viewBox="0 0 22 19" fill="none" xmlns="http://www.w3.org/2000/svg">
<path fill-rule="evenodd" clip-rule="evenodd" d="M7.92398 0.164097C3.21773 3.1866 0.603147 6.70472 0.0802305 10.7185C-0.734145 16.9666 4.85335 20.0247 7.68461 17.2772C10.5159 14.5297 8.81898 11.0416 6.76898 10.0878C4.71898 9.1341 3.46523 9.4666 3.68398 8.19222C3.90273 6.91785 6.81898 3.38597 9.38148 1.74097C9.47216 1.66367 9.52999 1.55474 9.54323 1.43632C9.55646 1.3179 9.5241 1.19889 9.45273 1.10347L8.81898 0.279097C8.54398 -0.0784034 8.28023 -0.0646537 7.92398 0.163471M20.3152 0.164097C15.609 3.1866 12.9944 6.70472 12.4715 10.7185C11.6565 16.9666 17.244 20.0247 20.0752 17.2772C22.9065 14.5297 21.2096 11.0416 19.159 10.0878C17.1084 9.1341 15.8552 9.4666 16.074 8.19222C16.2927 6.91785 19.2096 3.38597 21.7721 1.74097C21.8627 1.66358 21.9204 1.55461 21.9335 1.43619C21.9466 1.31778 21.9142 1.19881 21.8427 1.10347L21.2096 0.279097C20.9346 -0.0784034 20.6709 -0.0646537 20.3152 0.163471" fill="#1B3858"/>
</svg>
