<svg width="50" height="49" viewBox="0 0 50 49" fill="none" xmlns="http://www.w3.org/2000/svg">
<rect width="49.9965" height="48.7501" rx="24.3751" fill="#A9D6CB"/>
<path d="M17.8875 38.7501C17.4078 38.7492 16.9367 38.6235 16.5203 38.3853C15.5828 37.854 15 36.8228 15 35.7033V13.047C15 11.9244 15.5828 10.8962 16.5203 10.365C16.9466 10.12 17.4308 9.99403 17.9224 10.0002C18.414 10.0064 18.8949 10.1445 19.3148 10.4001L38.6781 21.9908C39.0817 22.2438 39.4143 22.5952 39.6449 23.012C39.8755 23.4287 39.9965 23.8973 39.9965 24.3736C39.9965 24.8499 39.8755 25.3184 39.6449 25.7352C39.4143 26.152 39.0817 26.5033 38.6781 26.7564L19.3117 38.3501C18.8819 38.61 18.3897 38.7482 17.8875 38.7501Z" fill="#1B3858"/>
</svg>
